<svg preserveAspectRatio="none" width="100%" height="100%" overflow="visible" style="display: block;" viewBox="0 0 18 18" fill="none" xmlns="http://www.w3.org/2000/svg">
<g id="Group">
<path id="Vector" opacity="0" d="M18 0H0V18H18V0Z" fill="var(--fill-0, black)"/>
<path id="Vector_2" d="M9.7629 17.0188V0.970324C9.7629 0.447004 9.32544 0 8.80261 0C8.27979 0 7.853 0.447004 7.853 0.970324V17.0188C7.853 17.5422 8.27979 17.9892 8.80261 17.9892C9.32544 17.9892 9.7629 17.5422 9.7629 17.0188ZM0.949616 9.9649H16.6556C17.1678 9.9649 17.6052 9.5288 17.6052 8.99457C17.6052 8.46035 17.1678 8.01334 16.6556 8.01334H0.949616C0.437464 8.01334 0 8.46035 0 8.99457C0 9.5288 0.437464 9.9649 0.949616 9.9649Z" fill="var(--fill-0, white)"/>
</g>
</svg>
